<svg width="20" height="21" viewBox="0 0 20 21" fill="none" xmlns="http://www.w3.org/2000/svg">
<path d="M13.3333 14.6666L17.5 10.5M17.5 10.5L13.3333 6.3333M17.5 10.5H7.5M10 14.6666C10 14.913 10 15.0361 9.99084 15.1428C9.89569 16.2516 9.07905 17.164 7.98753 17.381C7.88252 17.4019 7.76001 17.4155 7.51529 17.4427L6.66412 17.5373C5.3854 17.6794 4.74601 17.7504 4.23805 17.5879C3.56078 17.3711 3.00785 16.8762 2.71765 16.227C2.5 15.7401 2.5 15.0968 2.5 13.8102V7.18972C2.5 5.90311 2.5 5.2598 2.71765 4.7729C3.00785 4.1237 3.56078 3.62881 4.23805 3.41208C4.74601 3.24953 5.38538 3.32057 6.66412 3.46265L7.51529 3.55723C7.7601 3.58443 7.8825 3.59803 7.98753 3.61891C9.07905 3.83593 9.89569 4.74834 9.99084 5.85714C10 5.96383 10 6.08699 10 6.3333" stroke="black" stroke-width="1.7" stroke-linecap="round" stroke-linejoin="round"/>
</svg>
